<svg width="72" height="72" viewBox="0 0 72 72" fill="none" xmlns="http://www.w3.org/2000/svg">
<path d="M35.9999 0C16.1177 0 0 16.1177 0 35.9999C0 55.8821 16.1177 71.9998 35.9999 71.9998C55.8821 71.9998 71.9998 55.8821 71.9998 35.9999C71.9788 16.1266 55.8734 0.0212444 35.9999 0ZM35.9999 66.857C18.958 66.857 5.1428 53.0419 5.1428 35.9999C5.1428 18.958 18.958 5.1428 35.9999 5.1428C53.0419 5.1428 66.857 18.958 66.857 35.9999C66.8387 53.0343 53.0343 66.8387 35.9999 66.857Z" fill="#FF4040"/>
<path d="M24.3545 24.3535L46.6467 46.6457" stroke="#FF4040" stroke-width="6" stroke-linecap="round"/>
<path d="M46.6467 24.3535L24.3545 46.6457" stroke="#FF4040" stroke-width="6" stroke-linecap="round"/>
</svg>
